<?xml version="1.0" encoding="UTF-8"?>
<!DOCTYPE svg PUBLIC "-//W3C//DTD SVG 1.1//EN" "http://www.w3.org/Graphics/SVG/1.1/DTD/svg11.dtd">
<!-- Creator: CorelDRAW (OEM Version) -->
<svg xmlns="http://www.w3.org/2000/svg" xml:space="preserve" width="27.973cm" height="10.0214cm" version="1.1" style="shape-rendering:geometricPrecision; text-rendering:geometricPrecision; image-rendering:optimizeQuality; fill-rule:evenodd; clip-rule:evenodd"
viewBox="0 0 5510.99 1974.33"
 xmlns:xlink="http://www.w3.org/1999/xlink"
 xmlns:xodm="http://www.corel.com/coreldraw/odm/2003">
 <defs>
  <style type="text/css">
   <![CDATA[
    .fil0 {fill:#0F2920}
   ]]>
  </style>
 </defs>
 <g id="Layer_x0020_1">
  <metadata id="CorelCorpID_0Corel-Layer"/>
  <path class="fil0" d="M1821.25 1010.55c14.28,-50.3 111.15,-149.58 96.15,-308.5 50.36,22.99 154.82,184.45 166.1,280.41 -67.28,41.3 -175.71,80.14 -262.25,28.09zm-113.09 -233.25c63.67,-21.21 100.85,28.18 101.07,87.34 0.24,63.35 -47.4,83.61 -96.42,100.05 -138.85,46.56 -121.6,-148.43 -4.66,-187.38zm85.13 -165.56c-121.83,23.78 -184.26,161.72 -224.97,284.6 -34.6,104.45 -7.99,111.22 -110.17,147.42 -68.72,24.35 -149.14,34.37 -227.82,30.62 -23.5,-36.92 -28.15,-134.42 -112.89,-187.43 -86.45,-54.09 -150.75,33.35 -178.9,88.94 -122.59,242.14 -57.61,293.07 212.72,282.64l-0.09 74.61c-77.12,38.45 -104.94,104.02 -330.24,171.3 -197.09,58.86 -300.7,26.02 -455.77,22.38 101.15,113.83 334.58,208.23 544.91,143.52 91.58,-28.17 169.87,-93.83 214.37,-153.98 76.41,-103.27 97.28,-243.7 111.05,-257.55 36.92,-17.34 99.3,-20.23 139.68,-33.98 61.73,-21.02 75.15,-33.14 119.26,-65.05 124.37,6.45 137.88,3.19 230.64,-47.1 -0.44,74.62 28,93.17 103,98.55 259,18.59 457.44,-333.45 263.84,-589.72 -34.93,-46.23 -142.82,-171.75 -219.39,-177.55 -17.64,21.67 -30.19,48.82 -45.38,79.02 -16.57,32.95 -22.07,35.37 -29.32,69.57l-3.19 14.28c-0.24,0.99 -0.64,3.35 -1.35,4.88z"/>
  <path class="fil0" d="M3871.06 767.3c-0.68,163.7 27.16,251.91 -54.46,362.08 -107.24,144.74 -245.28,229.94 -404.25,318.66 -38.82,21.67 -80.21,42.43 -120.48,60.63l-124.5 58.97c143.1,3.15 393.7,-10.32 494.8,-78.34 156.25,-105.13 169.33,-251.11 216.16,-349.99 28.92,64.68 -20.16,273.59 194.59,273.43 65.54,-0.05 142.64,-16.81 197.89,-37.78 100.05,-37.96 108.38,-61.06 156.58,-84.24 17.4,32.48 18.18,49.2 46.26,69.78 74.72,54.75 216.05,30.1 297.45,6.99 112.11,-31.83 220.85,-89.81 311.27,-163.48 4.88,175.71 224.25,64.93 283.68,15.33 61.9,-51.67 134.28,-191.44 144.94,-312.22 -14.33,15.01 -14.51,22.44 -25.68,42.24 -87.68,155.37 -273.53,223.45 -316.95,160.63 -14.08,-26.95 -3.11,-43.38 3.4,-75.22 -22.04,6.54 -122.82,101.68 -254.33,152.33 -24.37,1.59 17.23,-64.9 22.48,-90.55 -26.7,33.61 -84.71,109.31 -234.39,116.41 -87.08,4.13 -116.54,-4.4 -172.2,-43.15 12.75,-31.8 183.39,-217.98 -2.11,-256.19 -59.2,-12.19 -140.17,0.49 -171.72,35.86 -17.59,19.71 -61.43,113.72 -69.44,144.47 50.4,35.96 62.5,10.41 95.06,83.4 -30.35,27.03 -254.27,64.15 -325.36,20.1 -99.07,-61.4 -73.49,-326.33 -73.29,-457.95 0.17,-110.43 -3.42,-234.3 16.61,-340.51 21.41,-113.54 56.32,-148.64 66.54,-191.39 -54.12,55.4 -112.2,136.16 -151.22,224.31 -57.05,128.91 -46.69,186.36 -47.32,335.4z"/>
  <path class="fil0" d="M3178.59 1290.67c-42.07,25.91 -90.75,64.43 -141.64,94.88 -148.99,89.14 -400.93,161.13 -550.08,64.41 -104.39,-67.7 -124.59,-202.22 -57.34,-338.2 64.9,-131.23 203.43,-201.84 231.38,-240.83 -82.94,22.25 -184.31,113.62 -222.16,159.6 -53.65,65.16 -104.8,139.13 -134.77,240.57 -73.04,247.16 62.69,417.7 302.49,415.82 269.31,-2.11 585.66,-236.52 650.95,-483.85 39.25,-148.68 -31.49,-183.14 -158.29,-198.91 14.77,-68.91 84.92,-133.91 62.65,-235.67 -13.12,-59.95 -94.32,-133.64 -138.31,-156.63 -21.65,25.82 -74.7,128.44 -79.83,166.58 25.72,20.23 197.41,137.91 110.55,193.21 -66.31,42.22 -57.31,-8.4 -96.04,78.03 -37.75,84.24 -81.13,125.1 2.32,128.95 88.67,4.1 226.6,-3.46 218.12,112.04z"/>
  <path class="fil0" d="M97.46 1974.33c34.68,-98.8 -185.09,-732.96 158.86,-958.04 144.03,-94.25 295.61,-90.31 442.39,-162.21 79.97,-39.17 107.17,-68 144.77,-153.64 43.67,-99.46 61.15,-146.47 -42.21,-191.81 -106.02,-46.51 -153.8,-1.55 -192.86,74.69 -63.34,123.63 -21.31,125.19 -88.26,141.47 -368.01,89.47 -536.04,381.76 -518.97,751.54 4.85,105.09 54.11,429.02 96.28,498.01z"/>
  <path class="fil0" d="M3590.03 1274.66l-0.55 40.38c27.47,-18.42 66.91,-129 76.08,-169.24 33.06,-145.04 -22.44,-287.55 -66.51,-418.75 -15.96,-47.52 -40.3,-153.99 -59.43,-193.15 -33.85,38.25 -59.88,100.5 -72.86,161.17 -23.91,111.78 123.27,318.63 123.27,579.59z"/>
  <path class="fil0" d="M5157.15 693.47c-40.31,-22.52 -55.22,-59.9 -97.3,-86.24 -26.56,11.21 -90.13,82.09 -99.41,111.42 16.75,18.25 84.69,83.21 99.41,89.81 19.33,-11.48 72.79,-72.36 87.6,-91.71 45.25,22.61 68.41,67.4 107.01,87.99 13.1,-7.73 87.22,-88.88 97.84,-106.93l-95.64 -100.89c-45.58,24.55 -59.96,71.69 -99.51,96.56z"/>
  <path class="fil0" d="M3029.27 1959.99c27.01,-24.86 69.24,-73.44 93.5,-108.48 -12.64,-18.8 -77.78,-87.39 -99.31,-96.13 -33.4,28.8 -64.02,57.82 -89.06,96.22 -25.66,-13.29 -71.57,-67.1 -98.59,-90.54 -24.36,11.89 -85.52,80.91 -98.59,104.35 9.46,18.07 81.24,89.87 98.59,97.98 35.92,-28.14 50.14,-69.04 95.77,-89.21l97.69 85.81z"/>
  <path class="fil0" d="M2766.31 449.26c32.69,24.81 65.37,62.98 97.3,84.03 37.8,-19.52 57.7,-59.01 90.35,-83.59 20.19,20.24 70.88,73.43 99.5,81.5 16.13,-16.89 78.99,-82.66 88.15,-104.46 -11.88,-23.78 -69.73,-80.4 -97.3,-90.15 -22.87,19.61 -67.08,65.71 -84.58,88.1 -34.82,-20.45 -70.02,-74.05 -103.2,-86.78 -24.5,25.12 -80.37,82.82 -90.24,111.35z"/>
  <path class="fil0" d="M1416.37 149.12c-44.58,-5.3 -94.39,-75.68 -11.32,-69.97 13.7,21.85 16.06,34.21 11.32,69.97zm-30.41 62.17c-29.81,44.27 -56.89,65.45 -98.74,98.67 -47.1,37.39 -104.6,61.44 -122.75,82.12 154.04,-22.84 229.27,-153.59 246.57,-166.48l38.62 25.46c30.52,-69.62 22.72,-37.07 -14.31,-88.42 14.09,-55.55 25.39,-86.9 -3.2,-131.32 -56.63,-10.9 -82.69,22.64 -96.8,69.83 -13.91,46.5 -2.87,63.63 23.35,85.71l23.4 20.46c0.88,0.85 2.69,2.55 3.86,3.97z"/>
  <path class="fil0" d="M5055.04 516.16c35.13,28.99 62.63,66.34 95.16,91.96 26.48,-13.48 88.49,-84.64 99.95,-111.88l-90.55 -95.77c-26.38,9.8 -95.49,89.6 -104.57,115.68z"/>
  <path class="fil0" d="M4391.54 676.95c12.32,22.72 70.08,80.91 91.45,94.18 22.37,-9.99 34.43,-30.85 51.85,-49.33 22.96,-24.37 38.27,-26.42 46.57,-61.27 -25.48,-19.46 -76.3,-78.57 -98.42,-86.41 -19.67,13.9 -78.59,78.69 -91.45,102.83z"/>
  <path class="fil0" d="M1888.01 1480.73c9.09,-29.17 2.47,-7.95 9.53,-17.54 18.72,10.93 34.92,16.11 30.86,46.29l-44.5 -5.7c1.52,-10.68 0.52,-11.55 4.11,-23.04zm-22.55 -34.64c10.62,24.48 10.66,28.02 -1.64,51.23 -29.14,-4.69 -24.12,-3.1 -36.42,-21.11 5.69,-24.5 10.47,-27.14 38.06,-30.12zm60.85 92.05c52.87,-70.33 4.73,-100.5 -36.29,-131.04 -12.67,-9.43 -20.7,-14.5 -38.81,-18.02 -21.68,24.34 -10.33,6.31 -14.48,34.48 -7.65,51.95 -48.86,35.78 -12.59,111.47 -25.44,10.28 -52.97,33.75 -82.19,49.9 -26.94,14.88 -59.32,27.22 -84.37,44.18 46.83,23.88 177.84,-84 186.26,-88.79 24,-13.65 44.97,-0.64 82.48,-2.18z"/>
  <path class="fil0" d="M4544.28 364.19c-38.08,41.92 -101.71,11.8 -96.65,-27.66 5.09,-39.76 92.89,-31.54 96.65,27.66zm-57.3 -101.55c-88.34,26.69 -95.98,199.95 20.28,167.62 97.38,-27.09 81.22,-198.28 -20.28,-167.62z"/>
  <path class="fil0" d="M3445.31 378.68c-16.08,40.8 -33.82,61.19 -22.77,121.36 6.12,33.33 17.1,100.7 45.14,114.48 9.25,-61.9 -33.79,-162.06 -21.91,-194.49 28.8,-49.11 75.79,-1.71 89.06,-93.9 -9.13,4.47 -26.11,12.91 -40.46,14.92 -41.46,5.82 -80.11,-17.87 -38.19,-71.81 33.75,4 2.59,3.9 31.2,17.16 9.63,-21.37 12.85,-39.26 -0.18,-58.83 -40.56,-5.06 -112.34,106.23 -41.91,151.12z"/>
  <path class="fil0" d="M3286.48 158.06c43.29,-9.54 194.25,-75.12 258.78,-99.93 47.52,-18.27 47.48,-8.76 63.54,-58.13l-257.73 101.3c-43.29,16.22 -47.79,12.77 -64.58,56.76z"/>
  <path class="fil0" d="M1404.41 537.74c-47.45,2.02 -38.01,-20.65 -41.09,-48.45 -1.22,-11.04 0.99,-15.61 -7.88,-26.93 -21.42,27.64 -1.42,118.19 -63.49,84.09 -15.17,-11.78 -12,-26.22 -12.05,-33.81 -0.14,-20.95 5.97,-17.54 -0.91,-34.48 -36.33,55.42 -15.32,163.68 55.27,94.31l14.23 -14.2c67.62,61.14 100.18,-47.24 69.5,-103.52 -27.72,36.34 -2.15,46.07 -13.58,82.99z"/>
  <path class="fil0" d="M3384.75 1783.92c33.56,-7.8 95.85,-34.74 127.25,-48.47 48.35,-21.14 85.4,-21.39 98.09,-71.94 -38.56,11.35 -88.14,33.55 -126.86,49.7 -78.82,32.89 -81.51,24.42 -98.48,70.71z"/>
  <path class="fil0" d="M4984.6 330.79l185.23 -72.27c33.03,-14.33 31.67,-12.16 44.21,-48.4 -40.51,12.21 -86.46,34.15 -126.85,49.55 -45.81,17.47 -88.67,25.61 -102.59,71.12z"/>
 </g>
</svg>
